<svg width="113" height="36" viewBox="0 0 113 36" fill="none" xmlns="http://www.w3.org/2000/svg">
<path d="M28.5147 0.465942L16.9389 24.0219H8.34967L3.26031 0.465942H10.4465L13.5678 17.473L21.3627 0.465942H28.5147Z" fill="#1A1A1A"/>
<path d="M36.4539 5.71173L35.9229 9.55419H43.6104L42.9224 14.5327H35.2349L34.6485 18.7761H43.361L42.636 24.0219H27.2269L30.4821 0.465942H45.8913L45.1664 5.71173H36.4539Z" fill="#1A1A1A"/>
<path d="M53.2312 19.01H60.7113L60.0189 24.0219H45.8443L49.0985 0.465942H55.793L53.2312 19.01Z" fill="#1A1A1A"/>
<path d="M72.7236 24.2555C70.4653 24.2555 68.4521 23.7209 66.7136 22.6851C64.9705 21.6827 63.6684 20.2126 62.8278 18.3749C61.953 16.5372 61.6923 14.4656 62.0113 12.1601C62.3304 9.85464 63.1692 7.74965 64.5526 5.91195C65.9018 4.07425 67.6015 2.67092 69.6268 1.63513C71.652 0.599335 73.8085 0.0981445 76.0667 0.0981445C78.3592 0.0981445 80.377 0.599335 82.1155 1.63513C83.8198 2.67092 85.1311 4.07425 85.9717 5.91195C86.8123 7.74965 87.0684 9.85464 86.7494 12.1601C86.4303 14.4656 85.5962 16.5372 84.247 18.3749C82.8977 20.2126 81.1888 21.6827 79.1682 22.6851C77.143 23.7209 74.9818 24.2555 72.7236 24.2555ZM73.5651 18.1744C75.2759 18.1744 76.7186 17.6398 77.8634 16.5372C79.0083 15.4346 79.6861 13.9978 79.9404 12.1601C80.1994 10.289 79.9238 8.81885 79.0841 7.71623C78.2399 6.64703 76.9452 6.11242 75.2344 6.11242C73.4894 6.11242 72.081 6.64703 70.9408 7.71623C69.7959 8.81885 69.1134 10.289 68.8545 12.1601C68.6002 13.9978 68.8757 15.468 69.72 16.5372C70.5597 17.6398 71.8201 18.1744 73.5651 18.1744Z" fill="#1A1A1A"/>
<path d="M101.041 24.0219L97.9044 18.5088L84.693 35.8834H75.8348L94.2023 11.8931L87.7114 0.465942H95.6121L98.7142 5.97903L102.931 0.465942H111.687L102.426 12.5279L108.941 24.0219H101.041Z" fill="#FF7701"/>
</svg>
