<svg width="74" height="74" viewBox="0 0 74 74" fill="none" xmlns="http://www.w3.org/2000/svg">
<rect x="1.5" y="1.5" width="71" height="71" rx="35.5" fill="url(#paint0_linear_1907_3010)"/>
<rect x="1.5" y="1.5" width="71" height="71" rx="35.5" stroke="url(#paint1_radial_1907_3010)" stroke-width="2"/>
<rect x="1.5" y="1.5" width="71" height="71" rx="35.5" stroke="url(#paint2_radial_1907_3010)" stroke-width="2"/>
<rect x="1.5" y="1.5" width="71" height="71" rx="35.5" stroke="url(#paint3_radial_1907_3010)" stroke-width="2"/>
<path fill-rule="evenodd" clip-rule="evenodd" d="M26 37.5C26 43.5751 30.9249 48.5 37 48.5C43.0751 48.5 48 43.5751 48 37.5C48 31.4249 43.0751 26.5 37 26.5C30.9249 26.5 26 31.4249 26 37.5ZM46 37.5C46 42.4706 41.9706 46.5 37 46.5C32.0294 46.5 28 42.4706 28 37.5C28 32.5294 32.0294 28.5 37 28.5C41.9706 28.5 46 32.5294 46 37.5ZM37.0003 43.4983C37.5528 43.4983 38.0007 43.0506 38.0007 42.4983C38.0007 41.9461 37.5528 41.4983 37.0003 41.4983C36.4479 41.4983 36 41.9461 36 42.4983C36 43.0506 36.4479 43.4983 37.0003 43.4983ZM38.0036 31.4983H36.003V39.4983H38.0036V31.4983Z" fill="#E8730C"/>
<defs>
<linearGradient id="paint0_linear_1907_3010" x1="0.5" y1="0.5" x2="73.5" y2="73.5" gradientUnits="userSpaceOnUse">
<stop stop-color="#FF9940"/>
<stop offset="1" stop-color="#FF9940" stop-opacity="0"/>
</linearGradient>
<radialGradient id="paint1_radial_1907_3010" cx="0" cy="0" r="1" gradientUnits="userSpaceOnUse" gradientTransform="translate(0.5 0.5) rotate(45) scale(103.238 98.5313)">
<stop stop-color="white"/>
<stop offset="1" stop-color="white" stop-opacity="0"/>
</radialGradient>
<radialGradient id="paint2_radial_1907_3010" cx="0" cy="0" r="1" gradientUnits="userSpaceOnUse" gradientTransform="translate(73.5 0.5) rotate(135) scale(103.238)">
<stop stop-color="#EB9B55"/>
<stop offset="1" stop-color="#FFBB80" stop-opacity="0"/>
</radialGradient>
<radialGradient id="paint3_radial_1907_3010" cx="0" cy="0" r="1" gradientUnits="userSpaceOnUse" gradientTransform="translate(73.5 73.5) rotate(-135) scale(103.238)">
<stop stop-color="#E4832F"/>
<stop offset="1" stop-color="#FF9940" stop-opacity="0"/>
</radialGradient>
</defs>
</svg>
