<svg width="16" height="17" viewBox="0 0 16 17" fill="none" xmlns="http://www.w3.org/2000/svg">
<path fill-rule="evenodd" clip-rule="evenodd" d="M6.66665 1.5835H13.3333C14.1015 1.5835 14.6666 2.14864 14.6666 2.91683V9.5835C14.6666 10.3517 14.1015 10.9168 13.3333 10.9168H10.6666V13.5835C10.6666 14.3517 10.1015 14.9168 9.33331 14.9168H2.66665C1.89846 14.9168 1.33331 14.3517 1.33331 13.5835V6.91683C1.33331 6.14864 1.89846 5.5835 2.66665 5.5835H5.33331V2.91683C5.33331 2.14864 5.89846 1.5835 6.66665 1.5835ZM5.33331 6.91683H2.66665V13.5835H9.33331V10.9168H6.66665C5.89846 10.9168 5.33331 10.3517 5.33331 9.5835V6.91683ZM6.66665 2.91683V9.5835H13.3333V2.91683H6.66665Z" fill="#E8730C"/>
</svg>
