<svg width="64" height="65" viewBox="0 0 64 65" fill="none" xmlns="http://www.w3.org/2000/svg">
<path d="M52 64C51.15 64 50.5 63.35 50.5 62.5V6.6L48.05 9.05C47.45 9.65 46.5 9.65 45.95 9.05L42 5.1L38.05 9.05C37.45 9.65 36.5 9.65 35.95 9.05L32 5.1L28.05 9.05C27.45 9.65 26.5 9.65 25.95 9.05L22 5.1L20.55 6.55C19.95 7.15 19 7.15 18.45 6.55C17.85 5.95 17.85 5 18.45 4.45L20.95 1.95C21.55 1.35 22.5 1.35 23.05 1.95L27 5.9L30.95 1.95C31.55 1.35 32.5 1.35 33.05 1.95L37 5.9L40.95 1.95C41.55 1.35 42.5 1.35 43.05 1.95L47 5.9L50.95 1.95C51.4 1.5 52 1.4 52.6 1.65C53.15 1.9 53.55 2.45 53.55 3.05V62.55C53.5 63.35 52.85 64 52 64Z" fill="#828282"/>
<path d="M37.55 31.45C37.55 29.6 36.65 27.9 35.15 26.85L30.5 23.65C29.85 23.15 29.45 22.4 29.45 21.55C29.45 20.15 30.6 19 32 19C33.05 19 33.95 19.6 34.35 20.55C34.65 21.3 35.55 21.65 36.3 21.35C37.05 21.05 37.4 20.15 37.1 19.4C36.45 17.8 35.1 16.65 33.5 16.2V16C33.5 15.15 32.85 14.5 32 14.5C31.15 14.5 30.5 15.15 30.5 16V16.2C28.15 16.85 26.45 19 26.45 21.55C26.45 23.35 27.3 25 28.8 26.05L33.45 29.3C34.15 29.8 34.55 30.55 34.55 31.4C34.55 32.8 33.4 33.95 32 33.95C31 33.95 30.05 33.35 29.65 32.4C29.3 31.65 28.45 31.3 27.7 31.6C26.95 31.95 26.6 32.8 26.9 33.55C27.6 35.1 28.9 36.25 30.5 36.7V37C30.5 37.85 31.15 38.5 32 38.5C32.85 38.5 33.5 37.85 33.5 37V36.8C35.85 36.15 37.55 34 37.55 31.45Z" fill="#F69E52" fill-opacity="0.4"/>
<path d="M41.5 61H13.5V3C13.5 2.15 12.85 1.5 12 1.5C11.15 1.5 10.5 2.15 10.5 3V61H2C1.15 61 0.5 61.65 0.5 62.5C0.5 63.35 1.15 64 2 64H41.5C42.35 64 43 63.35 43 62.5C43 61.65 42.35 61 41.5 61Z" fill="#828282"/>
<path d="M44.5 46.5H27.5C26.65 46.5 26 45.85 26 45C26 44.15 26.65 43.5 27.5 43.5H44.5C45.35 43.5 46 44.15 46 45C46 45.85 45.35 46.5 44.5 46.5ZM20 43.5C19.6022 43.5 19.2206 43.658 18.9393 43.9393C18.658 44.2206 18.5 44.6022 18.5 45C18.5 45.3978 18.658 45.7794 18.9393 46.0607C19.2206 46.342 19.6022 46.5 20 46.5C20.3978 46.5 20.7794 46.342 21.0607 46.0607C21.342 45.7794 21.5 45.3978 21.5 45C21.5 44.6022 21.342 44.2206 21.0607 43.9393C20.7794 43.658 20.3978 43.5 20 43.5ZM44.5 54H27.5C26.65 54 26 53.35 26 52.5C26 51.65 26.65 51 27.5 51H44.5C45.35 51 46 51.65 46 52.5C46 53.35 45.35 54 44.5 54ZM20 51C19.6022 51 19.2206 51.158 18.9393 51.4393C18.658 51.7206 18.5 52.1022 18.5 52.5C18.5 52.8978 18.658 53.2794 18.9393 53.5607C19.2206 53.842 19.6022 54 20 54C20.3978 54 20.7794 53.842 21.0607 53.5607C21.342 53.2794 21.5 52.8978 21.5 52.5C21.5 52.1022 21.342 51.7206 21.0607 51.4393C20.7794 51.158 20.3978 51 20 51Z" fill="#F69E52" fill-opacity="0.4"/>
</svg>
