<svg width="16" height="16" viewBox="0 0 16 16" fill="none" xmlns="http://www.w3.org/2000/svg">
<path d="M14.6667 8.00016C14.6667 7.0305 14.1157 6.18416 13.3113 5.75683C13.531 4.91983 13.317 3.98916 12.6637 3.33616C12.176 2.84816 11.5333 2.6055 10.89 2.6055C10.6723 2.6055 10.4547 2.63316 10.243 2.68883C9.81599 1.8845 8.96966 1.3335 7.99999 1.3335C7.03033 1.3335 6.18399 1.8845 5.75666 2.68883C5.54466 2.63316 5.32733 2.6055 5.10966 2.6055C4.46633 2.6055 3.82399 2.8485 3.33599 3.33616C2.68299 3.98916 2.46866 4.9195 2.68833 5.75683C1.88433 6.18416 1.33333 7.0305 1.33333 8.00016C1.33333 8.96983 1.88433 9.81616 2.68866 10.2435C2.46899 11.0805 2.68299 12.0112 3.33633 12.6642C3.82399 13.1518 4.46666 13.3948 5.10999 13.3948C5.32766 13.3948 5.54533 13.3672 5.75699 13.3115C6.18399 14.1158 7.03033 14.6668 7.99999 14.6668C8.96966 14.6668 9.81599 14.1158 10.2433 13.3115C10.4553 13.3672 10.6727 13.3948 10.8903 13.3948C11.5337 13.3948 12.176 13.1518 12.664 12.6642C13.317 12.0112 13.5313 11.0808 13.3117 10.2435C14.1157 9.81616 14.6667 8.96983 14.6667 8.00016Z" fill="#4CAF50"/>
<path d="M7.33333 10.9428L4.862 8.47115L5.80467 7.52848L7.33333 9.05682L10.5287 5.86182L11.4713 6.80448L7.33333 10.9428Z" fill="white"/>
</svg>
