<svg width="110" height="36" viewBox="0 0 110 36" fill="none" xmlns="http://www.w3.org/2000/svg">
<g clip-path="url(#clip0_77_476)">
<path d="M27.9463 0.46582L16.6382 24.0217H8.20143L3.14032 0.46582H10.1989L13.3097 17.4729L20.9213 0.46582H27.9463Z" fill="white"/>
<path d="M35.7097 5.71161L35.1977 9.55406H42.7575L42.0941 14.5326H34.5342L33.9687 18.776H42.5366L41.8375 24.0217H26.6842L29.8233 0.46582H44.9766L44.2776 5.71161H35.7097Z" fill="white"/>
<path d="M52.1833 19.0098H59.541L58.8732 24.0217H44.9305L48.0694 0.46582H54.6544L52.1833 19.0098Z" fill="white"/>
<path d="M71.3022 24.2555C69.0838 24.2555 67.1048 23.7209 65.3942 22.6851C63.6792 21.6827 62.3963 20.2126 61.5657 18.3749C60.7015 16.5372 60.4399 14.4656 60.7472 12.1601C61.0546 9.85464 61.873 7.74965 63.2271 5.91195C64.5477 4.07425 66.2137 2.67092 68.2004 1.63513C70.1871 0.599335 72.3042 0.0981445 74.5226 0.0981445C76.7746 0.0981445 78.758 0.599335 80.4686 1.63513C82.1455 2.67092 83.4374 4.07425 84.2679 5.91195C85.0985 7.74965 85.3557 9.85464 85.0483 12.1601C84.741 14.4656 83.9271 16.5372 82.6065 18.3749C81.286 20.2126 79.6111 21.6827 77.6288 22.6851C75.6421 23.7209 73.5205 24.2555 71.3022 24.2555ZM72.1128 18.1744C73.7934 18.1744 75.2091 17.6398 76.3309 16.5372C77.4526 15.4346 78.1147 13.9978 78.3597 12.1601C78.6091 10.289 78.3345 8.81885 77.5068 7.71623C76.6746 6.64703 75.4014 6.11242 73.7208 6.11242C72.0066 6.11242 70.6245 6.64703 69.5072 7.71623C68.3855 8.81885 67.719 10.289 67.4695 12.1601C67.2246 13.9978 67.4991 15.468 68.3313 16.5372C69.1591 17.6398 70.3987 18.1744 72.1128 18.1744Z" fill="white"/>
<path d="M99.0602 24.0217L95.9638 18.5087L83.0277 35.8832H74.3232L92.3085 11.893L85.9002 0.46582H93.6637L96.7265 5.97891L100.856 0.46582H109.459L100.391 12.5278L106.824 24.0217H99.0602Z" fill="#FF7701"/>
</g>
<defs>
<clipPath id="clip0_77_476">
<rect width="109.964" height="36" fill="white"/>
</clipPath>
</defs>
</svg>
